<svg id="Layer_1" data-name="Layer 1" xmlns="http://www.w3.org/2000/svg" viewBox="0 0 12 15.6"><defs><style>.cls-1{fill:#3e443d;}</style></defs><title>overview</title><path class="cls-1" d="M9.84,15.6H2.16c-0.18,0-.36-0.08-0.53-0.13A2.4,2.4,0,0,1,0,13.14Q0,10.72,0,8.3,0,5.38,0,2.46A2.4,2.4,0,0,1,1.63.13C1.8,0.08,2,0,2.16,0H7.31l0.2,0.06a2.54,2.54,0,0,1,1,.67c0.82,0.8,1.63,1.6,2.43,2.41,0.2,0.2.39,0.41,0.57,0.63A1.68,1.68,0,0,1,12,4.84c0,2.79,0,5.58,0,8.37a2.36,2.36,0,0,1-1.63,2.25C10.19,15.53,10,15.56,9.84,15.6ZM1.19,7.8q0,2.63,0,5.26a1.74,1.74,0,0,0,0,.44,1.19,1.19,0,0,0,1.22.92H9.53a1.26,1.26,0,0,0,.8-0.25,1.27,1.27,0,0,0,.48-1.08q0-3.77,0-7.54c0-.07,0-0.13,0-0.2a0.48,0.48,0,0,0-.4-0.47A1.78,1.78,0,0,0,10,4.81H7.88a0.58,0.58,0,0,1-.56-0.26,1,1,0,0,1-.11-0.45c0-.68,0-1.35,0-2a2.11,2.11,0,0,0-.08-0.54,0.44,0.44,0,0,0-.44-0.33H2.45a1.22,1.22,0,0,0-1,.49,1.33,1.33,0,0,0-.25.84Q1.19,5.16,1.19,7.8Z"/><path class="cls-1" d="M6,3a5.72,5.72,0,0,0,.16,1.79h-3A0.62,0.62,0,0,1,2.4,4.08c0-.15,0-0.29,0-0.44A0.59,0.59,0,0,1,3,3H6Z"/><path class="cls-1" d="M4.81,10.19V9H9.58v1.17H4.81Z"/><path class="cls-1" d="M9.59,6.62V7.79H4.82V6.62H9.59Z"/><path class="cls-1" d="M9.58,12.59H4.82V11.42H9.58v1.17Z"/><path class="cls-1" d="M3.58,10.19H2.42V9H3.58v1.18Z"/><path class="cls-1" d="M3.58,7.79H2.42V6.62H3.58V7.79Z"/><path class="cls-1" d="M3.59,11.42v1.16H2.41V11.42H3.59Z"/></svg>